<svg viewBox="0 0 1000 1000" xmlns="http://www.w3.org/2000/svg"><defs><clipPath id="a"><path fill="currentColor" d="M854.5 617.5Q824 735 730.5 828t-212 35.5Q400 806 311 754T185 601q-37-101-33.5-226T267 188q112-62 236-70t208 79.5q84 87.5 129 195t14.5 225Z"/></clipPath><pattern id="b" patternUnits="userSpaceOnUse" width="25" height="25" viewBox="0 0 100 100" fill="#E8DAFF"><circle cx="50" cy="50" r="12.5"/></pattern></defs><g clip-path="url(#a)"><path fill="url(#b)" d="M854.5 617.5Q824 735 730.5 828t-212 35.5Q400 806 311 754T185 601q-37-101-33.5-226T267 188q112-62 236-70t208 79.5q84 87.5 129 195t14.5 225Z"/></g></svg>